<svg xmlns="http://www.w3.org/2000/svg" viewBox="0 0 1200 675" role="img" aria-label="学生坐着写字">
<rect x="0.0" y="0.0" width="1200.0" height="675.0" rx="0.0" fill="#F4F8F6"/><rect x="494.4" y="342.4" width="211.2" height="21.1" rx="7.0" fill="#B98A5E" stroke="#33474A" stroke-width="3.5" stroke-linejoin="round"/><rect x="503.2" y="363.5" width="14.1" height="59.8" rx="5.6" fill="#B98A5E" stroke="#33474A" stroke-width="3.5" stroke-linejoin="round"/><rect x="682.7" y="363.5" width="14.1" height="59.8" rx="5.6" fill="#B98A5E" stroke="#33474A" stroke-width="3.5" stroke-linejoin="round"/><rect x="577.0" y="343.1" width="46.1" height="33.8" rx="5.6" fill="#FFFFFF" stroke="#33474A" stroke-width="3.5" stroke-linejoin="round"/><rect x="577.0" y="343.1" width="7.7" height="33.8" rx="5.6" fill="#2E8B78" stroke="#33474A" stroke-width="2.1" stroke-linejoin="round"/><circle cx="600.0" cy="302.4" r="22.4" fill="#D9A06B" stroke="#33474A" stroke-width="3.5"/><rect x="579.8" y="281.1" width="40.3" height="24.6" rx="13.4" fill="#6B4A33"/><rect x="572.8" y="318.1" width="54.4" height="70.7" rx="14.0" fill="#5B8FB0" stroke="#33474A" stroke-width="3.5" stroke-linejoin="round"/><rect x="572.8" y="388.8" width="54.4" height="25.6" rx="8.4" fill="#5B8FB0" stroke="#33474A" stroke-width="3.5" stroke-linejoin="round"/><rect x="576.0" y="411.2" width="20.8" height="35.2" rx="8.4" fill="#33474A" stroke="#33474A" stroke-width="3.5" stroke-linejoin="round"/><rect x="603.2" y="411.2" width="20.8" height="35.2" rx="8.4" fill="#33474A" stroke="#33474A" stroke-width="3.5" stroke-linejoin="round"/><rect x="620.8" y="324.5" width="48.0" height="16.0" rx="8.4" fill="#5B8FB0" stroke="#33474A" stroke-width="3.5" stroke-linejoin="round"/><circle cx="668.8" cy="330.9" r="11.2" fill="#D9A06B" stroke="#33474A" stroke-width="3.5"/>
</svg>