<svg xmlns="http://www.w3.org/2000/svg" viewBox="0 0 1200 675" role="img" aria-label="一个人拿着杯子喝水">
<rect x="0.0" y="0.0" width="1200.0" height="675.0" rx="0.0" fill="#F4F8F6"/><rect x="808.7" y="387.3" width="22.5" height="25.3" rx="8.4" fill="#FFFFFF" stroke="#33474A" stroke-width="3.5" stroke-linejoin="round"/><rect x="828.4" y="395.8" width="4.2" height="15.5" rx="4.2" fill="#FFFFFF" stroke="#33474A" stroke-width="3.5" stroke-linejoin="round"/><rect x="813.0" y="393.0" width="14.1" height="7.0" rx="4.2" fill="#5B8FB0" stroke="#33474A" stroke-width="2.1" stroke-linejoin="round" opacity="0.80"/><rect x="820.0" y="390.8" width="2.0" height="18.4" rx="0.0" fill="#2E8B78" opacity="0.70"/><rect x="826.1" y="394.9" width="2.0" height="10.2" rx="0.0" fill="#2E8B78" opacity="0.50"/><circle cx="600.0" cy="300.8" r="20.8" fill="#D9A06B" stroke="#33474A" stroke-width="3.5"/><rect x="581.3" y="281.0" width="37.4" height="22.9" rx="12.5" fill="#6B4A33"/><rect x="572.8" y="315.4" width="54.4" height="70.2" rx="14.0" fill="#5B8FB0" stroke="#33474A" stroke-width="3.5" stroke-linejoin="round"/><rect x="568.6" y="385.6" width="20.8" height="54.4" rx="8.4" fill="#33474A" stroke="#33474A" stroke-width="3.5" stroke-linejoin="round"/><rect x="610.6" y="385.6" width="20.8" height="54.4" rx="8.4" fill="#33474A" stroke="#33474A" stroke-width="3.5" stroke-linejoin="round"/><rect x="570.7" y="318.6" width="16.6" height="48.0" rx="8.4" fill="#5B8FB0" stroke="#33474A" stroke-width="3.5" stroke-linejoin="round"/><rect x="612.6" y="318.6" width="16.6" height="48.0" rx="8.4" fill="#5B8FB0" stroke="#33474A" stroke-width="3.5" stroke-linejoin="round"/>
</svg>