<svg xmlns="http://www.w3.org/2000/svg" viewBox="0 0 1200 675" role="img" aria-label="学生坐在课桌前学习">
<rect x="0.0" y="0.0" width="1200.0" height="675.0" rx="0.0" fill="#F4F8F6"/><rect x="488.6" y="341.4" width="222.7" height="22.3" rx="7.0" fill="#B98A5E" stroke="#33474A" stroke-width="3.5" stroke-linejoin="round"/><rect x="497.9" y="363.7" width="14.8" height="63.1" rx="5.6" fill="#B98A5E" stroke="#33474A" stroke-width="3.5" stroke-linejoin="round"/><rect x="687.2" y="363.7" width="14.8" height="63.1" rx="5.6" fill="#B98A5E" stroke="#33474A" stroke-width="3.5" stroke-linejoin="round"/><rect x="550.1" y="345.0" width="49.9" height="30.0" rx="5.6" fill="#FFFFFF" stroke="#33474A" stroke-width="3.5" stroke-linejoin="round"/><rect x="600.0" y="345.0" width="49.9" height="30.0" rx="5.6" fill="#FFFFFF" stroke="#33474A" stroke-width="3.5" stroke-linejoin="round"/><rect x="598.3" y="345.0" width="3.3" height="30.0" rx="0.0" fill="#33474A" stroke="#33474A" stroke-width="2.1" stroke-linejoin="round"/><rect x="578.9" y="344.5" width="42.2" height="31.0" rx="5.6" fill="#FFFFFF" stroke="#33474A" stroke-width="3.5" stroke-linejoin="round"/><rect x="578.9" y="344.5" width="7.0" height="31.0" rx="5.6" fill="#2E8B78" stroke="#33474A" stroke-width="2.1" stroke-linejoin="round"/><circle cx="840.0" cy="250.0" r="15.4" fill="#E0864B"/><text x="840.0" y="257.7" text-anchor="middle" font-family="sans-serif" font-size="20" font-weight="700" fill="#FFFFFF">!</text><circle cx="600.0" cy="302.4" r="22.4" fill="#E8B98F" stroke="#33474A" stroke-width="3.5"/><rect x="579.8" y="281.1" width="40.3" height="24.6" rx="13.4" fill="#2E2A28"/><rect x="572.8" y="318.1" width="54.4" height="70.7" rx="14.0" fill="#5B8FB0" stroke="#33474A" stroke-width="3.5" stroke-linejoin="round"/><rect x="572.8" y="388.8" width="54.4" height="25.6" rx="8.4" fill="#5B8FB0" stroke="#33474A" stroke-width="3.5" stroke-linejoin="round"/><rect x="576.0" y="411.2" width="20.8" height="35.2" rx="8.4" fill="#33474A" stroke="#33474A" stroke-width="3.5" stroke-linejoin="round"/><rect x="603.2" y="411.2" width="20.8" height="35.2" rx="8.4" fill="#33474A" stroke="#33474A" stroke-width="3.5" stroke-linejoin="round"/><rect x="620.8" y="324.5" width="48.0" height="16.0" rx="8.4" fill="#5B8FB0" stroke="#33474A" stroke-width="3.5" stroke-linejoin="round"/><circle cx="668.8" cy="330.9" r="11.2" fill="#E8B98F" stroke="#33474A" stroke-width="3.5"/>
</svg>