<svg xmlns="http://www.w3.org/2000/svg" viewBox="0 0 1200 675" role="img" aria-label="学生向老师问好">
<rect x="0.0" y="0.0" width="1200.0" height="675.0" rx="0.0" fill="#F4F8F6"/><rect x="547.2" y="331.2" width="105.6" height="57.6" rx="14.0" fill="#FFFFFF" stroke="#33474A" stroke-width="3.5" stroke-linejoin="round"/><path d="M588.5 388.8 L600.0 406.1 L611.5 388.8 Z" fill="#FFFFFF" stroke="#33474A" stroke-width="3.5"/><text x="600.0" y="373.4" text-anchor="middle" font-family="sans-serif" font-size="33" font-weight="700" fill="#33474A">你好</text><rect x="820.0" y="390.8" width="2.0" height="18.4" rx="0.0" fill="#2E8B78" opacity="0.70"/><rect x="826.1" y="394.9" width="2.0" height="10.2" rx="0.0" fill="#2E8B78" opacity="0.50"/><circle cx="820.0" cy="340.8" r="20.8" fill="#E8B98F" stroke="#33474A" stroke-width="3.5"/><rect x="801.3" y="321.0" width="37.4" height="22.9" rx="12.5" fill="#2E2A28"/><rect x="792.8" y="355.4" width="54.4" height="70.2" rx="14.0" fill="#2E8B78" stroke="#33474A" stroke-width="3.5" stroke-linejoin="round"/><rect x="788.6" y="425.6" width="20.8" height="54.4" rx="8.4" fill="#5B8FB0" stroke="#33474A" stroke-width="3.5" stroke-linejoin="round"/><rect x="830.6" y="425.6" width="20.8" height="54.4" rx="8.4" fill="#5B8FB0" stroke="#33474A" stroke-width="3.5" stroke-linejoin="round"/><rect x="790.7" y="358.6" width="16.6" height="48.0" rx="8.4" fill="#2E8B78" stroke="#33474A" stroke-width="3.5" stroke-linejoin="round"/><rect x="832.6" y="358.6" width="16.6" height="48.0" rx="8.4" fill="#2E8B78" stroke="#33474A" stroke-width="3.5" stroke-linejoin="round"/><circle cx="380.0" cy="348.2" r="20.2" fill="#E8B98F" stroke="#33474A" stroke-width="3.5"/><rect x="361.9" y="329.0" width="36.3" height="22.2" rx="12.1" fill="#2E2A28"/><rect x="355.5" y="362.3" width="49.0" height="63.6" rx="14.0" fill="#5B8FB0" stroke="#33474A" stroke-width="3.5" stroke-linejoin="round"/><rect x="355.5" y="425.9" width="49.0" height="23.0" rx="8.4" fill="#5B8FB0" stroke="#33474A" stroke-width="3.5" stroke-linejoin="round"/><rect x="358.4" y="446.1" width="18.7" height="31.7" rx="8.4" fill="#33474A" stroke="#33474A" stroke-width="3.5" stroke-linejoin="round"/><rect x="382.9" y="446.1" width="18.7" height="31.7" rx="8.4" fill="#33474A" stroke="#33474A" stroke-width="3.5" stroke-linejoin="round"/><rect x="349.8" y="365.2" width="14.4" height="37.4" rx="8.4" fill="#5B8FB0" stroke="#33474A" stroke-width="3.5" stroke-linejoin="round"/><rect x="395.8" y="365.2" width="14.4" height="37.4" rx="8.4" fill="#5B8FB0" stroke="#33474A" stroke-width="3.5" stroke-linejoin="round"/>
</svg>