<svg xmlns="http://www.w3.org/2000/svg" viewBox="0 0 1200 675" role="img" aria-label="顾客在餐厅点餐">
<rect x="0.0" y="0.0" width="1200.0" height="675.0" rx="0.0" fill="#F4F8F6"/><rect x="512.0" y="350.4" width="176.0" height="19.2" rx="7.0" fill="#B98A5E" stroke="#33474A" stroke-width="3.5" stroke-linejoin="round"/><rect x="520.0" y="369.6" width="12.8" height="48.0" rx="5.6" fill="#B98A5E" stroke="#33474A" stroke-width="3.5" stroke-linejoin="round"/><rect x="667.2" y="369.6" width="12.8" height="48.0" rx="5.6" fill="#B98A5E" stroke="#33474A" stroke-width="3.5" stroke-linejoin="round"/><rect x="550.7" y="333.1" width="98.6" height="53.8" rx="14.0" fill="#FFFFFF" stroke="#33474A" stroke-width="3.5" stroke-linejoin="round"/><path d="M589.2 386.9 L600.0 403.0 L610.8 386.9 Z" fill="#FFFFFF" stroke="#33474A" stroke-width="3.5"/><text x="600.0" y="372.5" text-anchor="middle" font-family="sans-serif" font-size="30" font-weight="700" fill="#33474A">点</text><circle cx="380.0" cy="344.7" r="21.5" fill="#E8B98F" stroke="#33474A" stroke-width="3.5"/><rect x="360.6" y="324.3" width="38.7" height="23.7" rx="12.9" fill="#2E2A28"/><rect x="353.9" y="359.8" width="52.2" height="67.9" rx="14.0" fill="#5B8FB0" stroke="#33474A" stroke-width="3.5" stroke-linejoin="round"/><rect x="353.9" y="427.6" width="52.2" height="24.6" rx="8.4" fill="#5B8FB0" stroke="#33474A" stroke-width="3.5" stroke-linejoin="round"/><rect x="357.0" y="449.2" width="20.0" height="33.8" rx="8.4" fill="#33474A" stroke="#33474A" stroke-width="3.5" stroke-linejoin="round"/><rect x="383.1" y="449.2" width="20.0" height="33.8" rx="8.4" fill="#33474A" stroke="#33474A" stroke-width="3.5" stroke-linejoin="round"/><rect x="347.7" y="362.8" width="15.4" height="39.9" rx="8.4" fill="#5B8FB0" stroke="#33474A" stroke-width="3.5" stroke-linejoin="round"/><rect x="396.9" y="362.8" width="15.4" height="39.9" rx="8.4" fill="#5B8FB0" stroke="#33474A" stroke-width="3.5" stroke-linejoin="round"/><circle cx="820.0" cy="340.8" r="20.8" fill="#E8B98F" stroke="#33474A" stroke-width="3.5"/><rect x="801.3" y="321.0" width="37.4" height="22.9" rx="12.5" fill="#2E2A28"/><rect x="792.8" y="355.4" width="54.4" height="70.2" rx="14.0" fill="#5B8FB0" stroke="#33474A" stroke-width="3.5" stroke-linejoin="round"/><rect x="788.6" y="425.6" width="20.8" height="54.4" rx="8.4" fill="#33474A" stroke="#33474A" stroke-width="3.5" stroke-linejoin="round"/><rect x="830.6" y="425.6" width="20.8" height="54.4" rx="8.4" fill="#33474A" stroke="#33474A" stroke-width="3.5" stroke-linejoin="round"/><rect x="790.7" y="358.6" width="16.6" height="48.0" rx="8.4" fill="#5B8FB0" stroke="#33474A" stroke-width="3.5" stroke-linejoin="round"/><rect x="832.6" y="358.6" width="16.6" height="48.0" rx="8.4" fill="#5B8FB0" stroke="#33474A" stroke-width="3.5" stroke-linejoin="round"/>
</svg>