<svg xmlns="http://www.w3.org/2000/svg" viewBox="0 0 1200 675" role="img" aria-label="一个人躺在床上睡觉">
<rect x="0.0" y="0.0" width="1200.0" height="675.0" rx="0.0" fill="#FBF6EF"/><rect x="1050.0" y="96.0" width="108.0" height="108.0" rx="9.8" fill="#FFFFFF" id="sib-window" stroke="#33474A" stroke-width="1.2" stroke-linejoin="round" opacity="0.55"/><rect x="1060.8" y="106.8" width="86.4" height="86.4" rx="5.6" fill="#2C3E63" stroke="#33474A" stroke-width="1.1" stroke-linejoin="round" opacity="0.14"/><circle cx="1093.2" cy="132.7" r="16.2" fill="#F4E3A1" id="sib-moon" stroke="#33474A" stroke-width="1.4"/><circle cx="1086.7" cy="129.5" r="14.0" fill="#2C3E63" opacity="0.14"/><circle cx="1129.9" cy="124.1" r="1.6" fill="#FDF6D8" opacity="0.40"/><circle cx="1117.0" cy="167.3" r="1.3" fill="#FDF6D8" opacity="0.36"/><rect x="1102.4" y="106.8" width="3.2" height="86.4" rx="0.0" fill="#FFFFFF" stroke="#33474A" stroke-width="1.6" stroke-linejoin="round" opacity="0.70"/><rect x="1060.8" y="148.4" width="86.4" height="3.2" rx="0.0" fill="#FFFFFF" stroke="#33474A" stroke-width="1.6" stroke-linejoin="round" opacity="0.70"/><rect x="226.9" y="354.5" width="746.2" height="110.5" rx="7.0" fill="#B98A5E" id="sib-bed" stroke="#33474A" stroke-width="3.5" stroke-linejoin="round"/><rect x="249.0" y="465.0" width="27.6" height="27.6" rx="4.2" fill="#B98A5E" stroke="#33474A" stroke-width="3.5" stroke-linejoin="round"/><rect x="923.3" y="465.0" width="27.6" height="27.6" rx="4.2" fill="#B98A5E" stroke="#33474A" stroke-width="3.5" stroke-linejoin="round"/><rect x="221.4" y="277.1" width="30.4" height="94.0" rx="7.0" fill="#B98A5E" stroke="#33474A" stroke-width="3.5" stroke-linejoin="round"/><rect x="240.7" y="326.8" width="718.5" height="33.2" rx="7.0" fill="#FBF6EF" stroke="#33474A" stroke-width="3.5" stroke-linejoin="round"/><rect x="231.1" y="290.9" width="223.8" height="55.3" rx="13.3" fill="#FFFFFF" id="sib-pillow" stroke="#33474A" stroke-width="3.5" stroke-linejoin="round"/><line x1="298.2" y1="321.3" x2="421.3" y2="321.3" stroke="#33474A" stroke-width="1.8" stroke-linecap="round" opacity="0.30"/><g transform="rotate(-12 342.6 307.5)"><circle cx="334.7" cy="283.0" r="40.3" fill="#4A3B33" stroke="#33474A" stroke-width="2.8"/><circle cx="342.6" cy="307.5" r="39.5" fill="#F3C9A8" id="sib-head" stroke="#33474A" stroke-width="3.5"/><path d="M354.4 306.7 Q 363.1 314.2 372.2 306.7" fill="none" stroke="#33474A" stroke-width="3.0" stroke-linecap="round"/><path d="M356.0 320.9 Q 363.1 325.7 370.2 320.9" fill="none" stroke="#33474A" stroke-width="2.4" stroke-linecap="round"/></g><rect x="359.2" y="320.1" width="30.4" height="33.2" rx="13.8" fill="#F3C9A8" stroke="#33474A" stroke-width="2.8" stroke-linejoin="round"/><path d="M359.2 334.0 Q 389.6 311.8 417.2 353.3 L 359.2 353.3 Z" fill="#4E8C9E" stroke="#33474A" stroke-width="2.4" stroke-linejoin="round"/><path id="sib-body" d="M384.1 304.7 Q 397.9 292.3 439.3 304.7 L 646.1 307.5 Q 693.1 296.4 729.0 306.1 L 813.5 310.3 Q 904.3 313.0 920.8 395.9 L 920.8 409.7 Q 887.7 416.7 837.9 409.7 L 397.9 409.7 Q 384.1 404.2 384.1 346.7 Z" fill="#4E8C9E" stroke="#33474A" stroke-width="3.5" stroke-linejoin="round"/><path id="sib-blanket" d="M389.6 306.8 Q 417.2 298.5 598.8 319.4 Q 695.4 299.2 813.5 327.8 L 912.6 330.6 Q 925.0 344.4 912.6 434.6 Q 813.5 448.4 598.8 418.0 Q 417.2 404.2 389.6 409.7 Z" fill="#5B8FB0" fill-opacity="0.97" stroke="#33474A" stroke-width="3.5" stroke-linejoin="round"/><line x1="417.2" y1="348.8" x2="598.8" y2="371.9" stroke="#33474A" stroke-width="2.1" stroke-linecap="round" opacity="0.42"/><line x1="695.4" y1="327.8" x2="813.5" y2="363.5" stroke="#33474A" stroke-width="1.8" stroke-linecap="round" opacity="0.32"/><polyline id="sib-z" points="338.4,242.3 359.2,242.3 338.4,263.0 359.2,263.0" fill="none" stroke="#A9BCC2" stroke-width="3.0" stroke-linejoin="round" stroke-linecap="round" opacity="0.55"/><polyline points="379.9,200.8 396.5,200.8 379.9,217.4 396.5,217.4" fill="none" stroke="#A9BCC2" stroke-width="3.0" stroke-linejoin="round" stroke-linecap="round" opacity="0.39"/><polyline points="421.3,159.4 433.8,159.4 421.3,171.8 433.8,171.8" fill="none" stroke="#A9BCC2" stroke-width="3.0" stroke-linejoin="round" stroke-linecap="round" opacity="0.23"/>
</svg>