<svg xmlns="http://www.w3.org/2000/svg" viewBox="0 0 1200 675" role="img" aria-label="一个人躺在床上睡觉">
<rect x="0.0" y="0.0" width="1200.0" height="675.0" rx="0.0" fill="#FBF6EF"/><rect x="1062.0" y="104.0" width="92.0" height="92.0" rx="9.8" fill="#FFFFFF" id="sib-window" stroke="#33474A" stroke-width="1.2" stroke-linejoin="round" opacity="0.55"/><rect x="1071.2" y="113.2" width="73.6" height="73.6" rx="5.6" fill="#2C3E63" stroke="#33474A" stroke-width="1.1" stroke-linejoin="round" opacity="0.14"/><circle cx="1098.8" cy="135.3" r="13.8" fill="#F4E3A1" id="sib-moon" stroke="#33474A" stroke-width="1.4"/><circle cx="1093.3" cy="132.5" r="12.0" fill="#2C3E63" opacity="0.14"/><circle cx="1130.1" cy="127.9" r="1.6" fill="#FDF6D8" opacity="0.40"/><circle cx="1119.0" cy="164.7" r="1.3" fill="#FDF6D8" opacity="0.36"/><rect x="1106.6" y="113.2" width="2.8" height="73.6" rx="0.0" fill="#FFFFFF" stroke="#33474A" stroke-width="1.6" stroke-linejoin="round" opacity="0.70"/><rect x="1071.2" y="148.6" width="73.6" height="2.8" rx="0.0" fill="#FFFFFF" stroke="#33474A" stroke-width="1.6" stroke-linejoin="round" opacity="0.70"/><rect x="209.3" y="345.5" width="781.4" height="115.8" rx="7.0" fill="#B98A5E" id="sib-bed" stroke="#33474A" stroke-width="3.5" stroke-linejoin="round"/><rect x="232.5" y="461.3" width="28.9" height="28.9" rx="4.2" fill="#B98A5E" stroke="#33474A" stroke-width="3.5" stroke-linejoin="round"/><rect x="938.6" y="461.3" width="28.9" height="28.9" rx="4.2" fill="#B98A5E" stroke="#33474A" stroke-width="3.5" stroke-linejoin="round"/><rect x="203.5" y="264.5" width="31.8" height="98.4" rx="7.0" fill="#B98A5E" stroke="#33474A" stroke-width="3.5" stroke-linejoin="round"/><rect x="223.8" y="316.6" width="752.5" height="34.7" rx="7.0" fill="#FBF6EF" stroke="#33474A" stroke-width="3.5" stroke-linejoin="round"/><rect x="213.6" y="278.9" width="234.4" height="57.9" rx="13.3" fill="#FFFFFF" id="sib-pillow" stroke="#33474A" stroke-width="3.5" stroke-linejoin="round"/><line x1="284.0" y1="310.8" x2="412.9" y2="310.8" stroke="#33474A" stroke-width="1.8" stroke-linecap="round" opacity="0.30"/><g transform="rotate(-12 330.4 296.3)"><circle cx="322.1" cy="270.6" r="42.2" fill="#4A3B33" stroke="#33474A" stroke-width="2.8"/><circle cx="330.4" cy="296.3" r="41.4" fill="#F3C9A8" id="sib-head" stroke="#33474A" stroke-width="3.5"/><path d="M342.8 295.5 Q 351.9 303.3 361.5 295.5" fill="none" stroke="#33474A" stroke-width="3.0" stroke-linecap="round"/><path d="M344.5 310.4 Q 351.9 315.3 359.4 310.4" fill="none" stroke="#33474A" stroke-width="2.4" stroke-linecap="round"/></g><rect x="347.8" y="309.6" width="31.8" height="34.7" rx="14.5" fill="#F3C9A8" stroke="#33474A" stroke-width="2.8" stroke-linejoin="round"/><path d="M347.8 324.0 Q 379.7 300.9 408.6 344.3 L 347.8 344.3 Z" fill="#4E8C9E" stroke="#33474A" stroke-width="2.4" stroke-linejoin="round"/><path id="sib-body" d="M373.9 293.4 Q 388.3 280.4 431.8 293.4 L 648.3 296.3 Q 697.5 284.7 735.1 294.9 L 823.6 299.2 Q 918.6 302.1 936.0 388.9 L 936.0 403.4 Q 901.3 410.6 849.2 403.4 L 388.3 403.4 Q 373.9 397.6 373.9 337.4 Z" fill="#4E8C9E" stroke="#33474A" stroke-width="3.5" stroke-linejoin="round"/><path id="sib-blanket" d="M379.7 295.6 Q 408.6 286.9 598.7 308.8 Q 699.9 287.6 823.6 317.6 L 927.3 320.5 Q 940.3 335.0 927.3 429.4 Q 823.6 443.9 598.7 412.1 Q 408.6 397.6 379.7 403.4 Z" fill="#5B8FB0" fill-opacity="0.97" stroke="#33474A" stroke-width="3.5" stroke-linejoin="round"/><line x1="408.6" y1="339.6" x2="598.7" y2="363.8" stroke="#33474A" stroke-width="2.1" stroke-linecap="round" opacity="0.42"/><line x1="699.9" y1="317.6" x2="823.6" y2="355.0" stroke="#33474A" stroke-width="1.8" stroke-linecap="round" opacity="0.32"/><polyline id="sib-z" points="326.1,228.0 347.8,228.0 326.1,249.7 347.8,249.7" fill="none" stroke="#A9BCC2" stroke-width="3.0" stroke-linejoin="round" stroke-linecap="round" opacity="0.55"/><polyline points="369.5,184.6 386.9,184.6 369.5,202.0 386.9,202.0" fill="none" stroke="#A9BCC2" stroke-width="3.0" stroke-linejoin="round" stroke-linecap="round" opacity="0.39"/>
</svg>