<svg xmlns="http://www.w3.org/2000/svg" viewBox="0 0 1200 675" role="img" aria-label="一个人躺在床上睡觉">
<rect x="0.0" y="0.0" width="1200.0" height="675.0" rx="0.0" fill="#FBF6EF"/><rect x="200.5" y="332.3" width="799.0" height="118.4" rx="7.0" fill="#B98A5E" id="sib-bed" stroke="#33474A" stroke-width="3.5" stroke-linejoin="round"/><rect x="224.2" y="450.7" width="29.6" height="29.6" rx="4.2" fill="#B98A5E" stroke="#33474A" stroke-width="3.5" stroke-linejoin="round"/><rect x="946.2" y="450.7" width="29.6" height="29.6" rx="4.2" fill="#B98A5E" stroke="#33474A" stroke-width="3.5" stroke-linejoin="round"/><rect x="194.6" y="249.5" width="32.6" height="100.6" rx="7.0" fill="#B98A5E" stroke="#33474A" stroke-width="3.5" stroke-linejoin="round"/><rect x="215.3" y="302.7" width="769.4" height="35.5" rx="7.0" fill="#FBF6EF" stroke="#33474A" stroke-width="3.5" stroke-linejoin="round"/><rect x="204.9" y="264.3" width="239.7" height="59.2" rx="13.3" fill="#FFFFFF" id="sib-pillow" stroke="#33474A" stroke-width="3.5" stroke-linejoin="round"/><line x1="276.8" y1="296.8" x2="408.7" y2="296.8" stroke="#33474A" stroke-width="1.8" stroke-linecap="round" opacity="0.30"/><g transform="rotate(-12 324.3 282.0)"><circle cx="315.9" cy="255.8" r="43.2" fill="#4A3B33" stroke="#33474A" stroke-width="2.8"/><circle cx="324.3" cy="282.0" r="42.3" fill="#F3C9A8" id="sib-head" stroke="#33474A" stroke-width="3.5"/><path d="M337.0 281.2 Q 346.3 289.2 356.1 281.2" fill="none" stroke="#33474A" stroke-width="3.0" stroke-linecap="round"/><path d="M338.7 296.4 Q 346.3 301.5 354.0 296.4" fill="none" stroke="#33474A" stroke-width="2.4" stroke-linecap="round"/></g><rect x="342.1" y="295.6" width="32.6" height="35.5" rx="14.8" fill="#F3C9A8" stroke="#33474A" stroke-width="2.8" stroke-linejoin="round"/><path d="M342.1 310.4 Q 374.7 286.7 404.3 331.1 L 342.1 331.1 Z" fill="#4E8C9E" stroke="#33474A" stroke-width="2.4" stroke-linejoin="round"/><path id="sib-body" d="M368.8 279.1 Q 383.6 265.7 428.0 279.1 L 649.4 282.0 Q 699.7 270.2 738.2 280.5 L 828.6 285.0 Q 925.8 287.9 943.6 376.7 L 943.6 391.5 Q 908.1 398.9 854.8 391.5 L 383.6 391.5 Q 368.8 385.6 368.8 324.0 Z" fill="#4E8C9E" stroke="#33474A" stroke-width="3.5" stroke-linejoin="round"/><path id="sib-blanket" d="M374.7 281.3 Q 404.3 272.4 598.7 294.8 Q 702.2 273.1 828.6 303.8 L 934.7 306.8 Q 948.0 321.5 934.7 418.1 Q 828.6 432.9 598.7 400.4 Q 404.3 385.6 374.7 391.5 Z" fill="#5B8FB0" fill-opacity="0.97" stroke="#33474A" stroke-width="3.5" stroke-linejoin="round"/><line x1="404.3" y1="326.3" x2="598.7" y2="351.0" stroke="#33474A" stroke-width="2.1" stroke-linecap="round" opacity="0.42"/><line x1="702.2" y1="303.8" x2="828.6" y2="342.0" stroke="#33474A" stroke-width="1.8" stroke-linecap="round" opacity="0.32"/><polyline id="sib-z" points="319.9,212.2 342.1,212.2 319.9,234.4 342.1,234.4" fill="none" stroke="#A9BCC2" stroke-width="3.0" stroke-linejoin="round" stroke-linecap="round" opacity="0.55"/>
</svg>