<svg xmlns="http://www.w3.org/2000/svg" viewBox="0 0 1200 675" role="img" aria-label="一个人躺在床上睡觉">
<rect x="0.0" y="0.0" width="1200.0" height="675.0" rx="0.0" fill="#FBF6EF"/><rect x="1050.0" y="96.0" width="108.0" height="108.0" rx="9.8" fill="#FFFFFF" id="sib-window" stroke="#33474A" stroke-width="1.2" stroke-linejoin="round" opacity="0.55"/><rect x="1060.8" y="106.8" width="86.4" height="86.4" rx="5.6" fill="#2C3E63" stroke="#33474A" stroke-width="1.1" stroke-linejoin="round" opacity="0.14"/><circle cx="1093.2" cy="132.7" r="16.2" fill="#F4E3A1" id="sib-moon" stroke="#33474A" stroke-width="1.4"/><circle cx="1086.7" cy="129.5" r="14.0" fill="#2C3E63" opacity="0.14"/><circle cx="1129.9" cy="124.1" r="1.6" fill="#FDF6D8" opacity="0.40"/><circle cx="1117.0" cy="167.3" r="1.3" fill="#FDF6D8" opacity="0.36"/><rect x="1102.4" y="106.8" width="3.2" height="86.4" rx="0.0" fill="#FFFFFF" stroke="#33474A" stroke-width="1.6" stroke-linejoin="round" opacity="0.70"/><rect x="1060.8" y="148.4" width="86.4" height="3.2" rx="0.0" fill="#FFFFFF" stroke="#33474A" stroke-width="1.6" stroke-linejoin="round" opacity="0.70"/><rect x="247.5" y="354.8" width="705.0" height="104.4" rx="7.0" fill="#B98A5E" id="sib-bed" stroke="#33474A" stroke-width="3.5" stroke-linejoin="round"/><rect x="268.4" y="459.2" width="26.1" height="26.1" rx="4.2" fill="#B98A5E" stroke="#33474A" stroke-width="3.5" stroke-linejoin="round"/><rect x="905.5" y="459.2" width="26.1" height="26.1" rx="4.2" fill="#B98A5E" stroke="#33474A" stroke-width="3.5" stroke-linejoin="round"/><rect x="242.3" y="281.7" width="28.7" height="88.8" rx="7.0" fill="#B98A5E" stroke="#33474A" stroke-width="3.5" stroke-linejoin="round"/><rect x="260.5" y="328.7" width="678.9" height="31.3" rx="7.0" fill="#FBF6EF" stroke="#33474A" stroke-width="3.5" stroke-linejoin="round"/><rect x="251.4" y="294.7" width="211.5" height="52.2" rx="13.3" fill="#FFFFFF" id="sib-pillow" stroke="#33474A" stroke-width="3.5" stroke-linejoin="round"/><line x1="314.9" y1="323.4" x2="431.2" y2="323.4" stroke="#33474A" stroke-width="1.8" stroke-linecap="round" opacity="0.30"/><g transform="rotate(-12 356.8 310.4)"><circle cx="349.3" cy="287.2" r="38.1" fill="#6B4A33" stroke="#33474A" stroke-width="2.8"/><circle cx="356.8" cy="310.4" r="37.3" fill="#D9A06B" id="sib-head" stroke="#33474A" stroke-width="3.5"/><path d="M368.0 309.6 Q 376.2 316.7 384.8 309.6" fill="none" stroke="#33474A" stroke-width="3.0" stroke-linecap="round"/><path d="M369.5 323.1 Q 376.2 327.6 382.9 323.1" fill="none" stroke="#33474A" stroke-width="2.4" stroke-linecap="round"/></g><rect x="372.4" y="322.3" width="28.7" height="31.3" rx="13.1" fill="#D9A06B" stroke="#33474A" stroke-width="2.8" stroke-linejoin="round"/><path d="M372.4 335.4 Q 401.2 314.5 427.3 353.7 L 372.4 353.7 Z" fill="#4E8C9E" stroke="#33474A" stroke-width="2.4" stroke-linejoin="round"/><path id="sib-body" d="M396.0 307.8 Q 409.0 296.0 448.2 307.8 L 643.6 310.4 Q 688.0 299.9 721.9 309.1 L 801.7 313.0 Q 887.5 315.6 903.2 393.9 L 903.2 407.0 Q 871.8 413.5 824.8 407.0 L 409.0 407.0 Q 396.0 401.8 396.0 347.5 Z" fill="#4E8C9E" stroke="#33474A" stroke-width="3.5" stroke-linejoin="round"/><path id="sib-blanket" d="M401.2 309.8 Q 427.3 301.9 598.8 321.7 Q 690.1 302.6 801.7 329.6 L 895.3 332.2 Q 907.1 345.3 895.3 430.5 Q 801.7 443.6 598.8 414.8 Q 427.3 401.8 401.2 407.0 Z" fill="#5B8FB0" fill-opacity="0.97" stroke="#33474A" stroke-width="3.5" stroke-linejoin="round"/><line x1="427.3" y1="349.5" x2="598.8" y2="371.3" stroke="#33474A" stroke-width="2.1" stroke-linecap="round" opacity="0.42"/><line x1="690.1" y1="329.6" x2="801.7" y2="363.3" stroke="#33474A" stroke-width="1.8" stroke-linecap="round" opacity="0.32"/><polyline id="sib-z" points="352.8,248.8 372.4,248.8 352.8,268.4 372.4,268.4" fill="none" stroke="#A9BCC2" stroke-width="3.0" stroke-linejoin="round" stroke-linecap="round" opacity="0.55"/><polyline points="392.0,209.6 407.7,209.6 392.0,225.3 407.7,225.3" fill="none" stroke="#A9BCC2" stroke-width="3.0" stroke-linejoin="round" stroke-linecap="round" opacity="0.39"/><polyline points="431.2,170.4 442.9,170.4 431.2,182.2 442.9,182.2" fill="none" stroke="#A9BCC2" stroke-width="3.0" stroke-linejoin="round" stroke-linecap="round" opacity="0.23"/>
</svg>