<svg xmlns="http://www.w3.org/2000/svg" viewBox="0 0 1200 675" role="img" aria-label="一个人躺在床上睡觉">
<rect x="0.0" y="0.0" width="1200.0" height="675.0" rx="0.0" fill="#FBF6EF"/><rect x="1062.0" y="104.0" width="92.0" height="92.0" rx="9.8" fill="#FFFFFF" id="sib-window" stroke="#33474A" stroke-width="1.2" stroke-linejoin="round" opacity="0.55"/><rect x="1071.2" y="113.2" width="73.6" height="73.6" rx="5.6" fill="#2C3E63" stroke="#33474A" stroke-width="1.1" stroke-linejoin="round" opacity="0.14"/><circle cx="1098.8" cy="135.3" r="13.8" fill="#F4E3A1" id="sib-moon" stroke="#33474A" stroke-width="1.4"/><circle cx="1093.3" cy="132.5" r="12.0" fill="#2C3E63" opacity="0.14"/><circle cx="1130.1" cy="127.9" r="1.6" fill="#FDF6D8" opacity="0.40"/><circle cx="1119.0" cy="164.7" r="1.3" fill="#FDF6D8" opacity="0.36"/><rect x="1106.6" y="113.2" width="2.8" height="73.6" rx="0.0" fill="#FFFFFF" stroke="#33474A" stroke-width="1.6" stroke-linejoin="round" opacity="0.70"/><rect x="1071.2" y="148.6" width="73.6" height="2.8" rx="0.0" fill="#FFFFFF" stroke="#33474A" stroke-width="1.6" stroke-linejoin="round" opacity="0.70"/><rect x="224.0" y="345.7" width="752.0" height="111.4" rx="7.0" fill="#B98A5E" id="sib-bed" stroke="#33474A" stroke-width="3.5" stroke-linejoin="round"/><rect x="246.3" y="457.1" width="27.9" height="27.9" rx="4.2" fill="#B98A5E" stroke="#33474A" stroke-width="3.5" stroke-linejoin="round"/><rect x="925.9" y="457.1" width="27.9" height="27.9" rx="4.2" fill="#B98A5E" stroke="#33474A" stroke-width="3.5" stroke-linejoin="round"/><rect x="218.4" y="267.7" width="30.6" height="94.7" rx="7.0" fill="#B98A5E" stroke="#33474A" stroke-width="3.5" stroke-linejoin="round"/><rect x="237.9" y="317.9" width="724.2" height="33.4" rx="7.0" fill="#FBF6EF" stroke="#33474A" stroke-width="3.5" stroke-linejoin="round"/><rect x="228.2" y="281.7" width="225.6" height="55.7" rx="13.3" fill="#FFFFFF" id="sib-pillow" stroke="#33474A" stroke-width="3.5" stroke-linejoin="round"/><line x1="295.8" y1="312.3" x2="419.9" y2="312.3" stroke="#33474A" stroke-width="1.8" stroke-linecap="round" opacity="0.30"/><g transform="rotate(-12 340.6 298.4)"><circle cx="332.6" cy="273.7" r="40.6" fill="#6B4A33" stroke="#33474A" stroke-width="2.8"/><circle cx="340.6" cy="298.4" r="39.8" fill="#D9A06B" id="sib-head" stroke="#33474A" stroke-width="3.5"/><path d="M352.5 297.6 Q 361.3 305.1 370.4 297.6" fill="none" stroke="#33474A" stroke-width="3.0" stroke-linecap="round"/><path d="M354.1 311.9 Q 361.3 316.7 368.4 311.9" fill="none" stroke="#33474A" stroke-width="2.4" stroke-linecap="round"/></g><rect x="357.3" y="311.1" width="30.6" height="33.4" rx="13.9" fill="#D9A06B" stroke="#33474A" stroke-width="2.8" stroke-linejoin="round"/><path d="M357.3 325.0 Q 387.9 302.8 415.8 344.5 L 357.3 344.5 Z" fill="#4E8C9E" stroke="#33474A" stroke-width="2.4" stroke-linejoin="round"/><path id="sib-body" d="M382.4 295.6 Q 396.3 283.1 438.1 295.6 L 646.5 298.4 Q 693.8 287.2 730.1 297.0 L 815.2 301.2 Q 906.7 303.9 923.4 387.5 L 923.4 401.4 Q 889.9 408.4 839.8 401.4 L 396.3 401.4 Q 382.4 395.9 382.4 337.9 Z" fill="#4E8C9E" stroke="#33474A" stroke-width="3.5" stroke-linejoin="round"/><path id="sib-blanket" d="M387.9 297.7 Q 415.8 289.4 598.8 310.4 Q 696.2 290.0 815.2 318.9 L 915.0 321.7 Q 927.5 335.6 915.0 426.5 Q 815.2 440.4 598.8 409.8 Q 415.8 395.9 387.9 401.4 Z" fill="#5B8FB0" fill-opacity="0.97" stroke="#33474A" stroke-width="3.5" stroke-linejoin="round"/><line x1="415.8" y1="340.0" x2="598.8" y2="363.3" stroke="#33474A" stroke-width="2.1" stroke-linecap="round" opacity="0.42"/><line x1="696.2" y1="318.9" x2="815.2" y2="354.9" stroke="#33474A" stroke-width="1.8" stroke-linecap="round" opacity="0.32"/><polyline id="sib-z" points="336.4,232.7 357.3,232.7 336.4,253.5 357.3,253.5" fill="none" stroke="#A9BCC2" stroke-width="3.0" stroke-linejoin="round" stroke-linecap="round" opacity="0.55"/><polyline points="378.2,190.9 394.9,190.9 378.2,207.6 394.9,207.6" fill="none" stroke="#A9BCC2" stroke-width="3.0" stroke-linejoin="round" stroke-linecap="round" opacity="0.39"/>
</svg>