<svg xmlns="http://www.w3.org/2000/svg" viewBox="0 0 1200 675" role="img" aria-label="一个人躺在床上睡觉">
<rect x="0.0" y="0.0" width="1200.0" height="675.0" rx="0.0" fill="#FBF6EF"/><rect x="212.2" y="332.5" width="775.5" height="114.9" rx="7.0" fill="#B98A5E" id="sib-bed" stroke="#33474A" stroke-width="3.5" stroke-linejoin="round"/><rect x="235.2" y="447.4" width="28.7" height="28.7" rx="4.2" fill="#B98A5E" stroke="#33474A" stroke-width="3.5" stroke-linejoin="round"/><rect x="936.1" y="447.4" width="28.7" height="28.7" rx="4.2" fill="#B98A5E" stroke="#33474A" stroke-width="3.5" stroke-linejoin="round"/><rect x="206.5" y="252.1" width="31.6" height="97.7" rx="7.0" fill="#B98A5E" stroke="#33474A" stroke-width="3.5" stroke-linejoin="round"/><rect x="226.6" y="303.8" width="746.8" height="34.5" rx="7.0" fill="#FBF6EF" stroke="#33474A" stroke-width="3.5" stroke-linejoin="round"/><rect x="216.5" y="266.4" width="232.7" height="57.4" rx="13.3" fill="#FFFFFF" id="sib-pillow" stroke="#33474A" stroke-width="3.5" stroke-linejoin="round"/><line x1="286.3" y1="298.0" x2="414.3" y2="298.0" stroke="#33474A" stroke-width="1.8" stroke-linecap="round" opacity="0.30"/><g transform="rotate(-12 332.4 283.7)"><circle cx="324.2" cy="258.2" r="41.9" fill="#6B4A33" stroke="#33474A" stroke-width="2.8"/><circle cx="332.4" cy="283.7" r="41.1" fill="#D9A06B" id="sib-head" stroke="#33474A" stroke-width="3.5"/><path d="M344.8 282.8 Q 353.8 290.6 363.2 282.8" fill="none" stroke="#33474A" stroke-width="3.0" stroke-linecap="round"/><path d="M346.4 297.6 Q 353.8 302.6 361.2 297.6" fill="none" stroke="#33474A" stroke-width="2.4" stroke-linecap="round"/></g><rect x="349.7" y="296.8" width="31.6" height="34.5" rx="14.4" fill="#D9A06B" stroke="#33474A" stroke-width="2.8" stroke-linejoin="round"/><path d="M349.7 311.2 Q 381.3 288.2 410.0 331.3 L 349.7 331.3 Z" fill="#4E8C9E" stroke="#33474A" stroke-width="2.4" stroke-linejoin="round"/><path id="sib-body" d="M375.6 280.8 Q 389.9 267.9 433.0 280.8 L 648.0 283.7 Q 696.8 272.2 734.1 282.2 L 821.9 286.5 Q 916.2 289.4 933.5 375.6 L 933.5 389.9 Q 899.0 397.1 847.3 389.9 L 389.9 389.9 Q 375.6 384.2 375.6 324.5 Z" fill="#4E8C9E" stroke="#33474A" stroke-width="3.5" stroke-linejoin="round"/><path id="sib-blanket" d="M381.3 283.0 Q 410.0 274.4 598.7 296.1 Q 699.2 275.0 821.9 304.8 L 924.9 307.7 Q 937.8 322.0 924.9 415.8 Q 821.9 430.2 598.7 398.6 Q 410.0 384.2 381.3 389.9 Z" fill="#5B8FB0" fill-opacity="0.97" stroke="#33474A" stroke-width="3.5" stroke-linejoin="round"/><line x1="410.0" y1="326.6" x2="598.7" y2="350.6" stroke="#33474A" stroke-width="2.1" stroke-linecap="round" opacity="0.42"/><line x1="699.2" y1="304.8" x2="821.9" y2="341.9" stroke="#33474A" stroke-width="1.8" stroke-linecap="round" opacity="0.32"/><polyline id="sib-z" points="328.1,215.9 349.7,215.9 328.1,237.4 349.7,237.4" fill="none" stroke="#A9BCC2" stroke-width="3.0" stroke-linejoin="round" stroke-linecap="round" opacity="0.55"/>
</svg>